<svg width="24" height="24" viewBox="0 0 24 24" fill="none" xmlns="http://www.w3.org/2000/svg">
<path fill-rule="evenodd" clip-rule="evenodd" d="M19.1999 9.60002C19.1999 8.32699 18.6942 7.10609 17.794 6.20591C16.8938 5.30574 15.6729 4.80002 14.3999 4.80002C13.1269 4.80002 11.906 5.30574 11.0058 6.20591C10.1056 7.10609 9.59991 8.32699 9.59991 9.60002C9.59991 10.8731 10.1056 12.094 11.0058 12.9941C11.906 13.8943 13.1269 14.4 14.3999 14.4C15.6729 14.4 16.8938 13.8943 17.794 12.9941C18.6942 12.094 19.1999 10.8731 19.1999 9.60002ZM14.3999 2.40002C15.5331 2.39988 16.6503 2.6672 17.6606 3.18023C18.671 3.69326 19.546 4.43753 20.2145 5.3525C20.883 6.26747 21.3261 7.3273 21.5077 8.4458C21.6894 9.5643 21.6045 10.7099 21.2599 11.7894C20.9153 12.8689 20.3208 13.8518 19.5248 14.6582C18.7287 15.4646 17.7535 16.0718 16.6786 16.4303C15.6036 16.7887 14.4592 16.8884 13.3384 16.7212C12.2177 16.554 11.1522 16.1246 10.2287 15.468L4.44831 21.2484C4.22199 21.467 3.91886 21.588 3.60423 21.5852C3.28959 21.5825 2.98862 21.4563 2.76613 21.2338C2.54364 21.0113 2.41743 20.7103 2.4147 20.3957C2.41197 20.0811 2.53292 19.7779 2.75151 19.5516L8.53071 13.7724C7.76477 12.6953 7.31012 11.428 7.21657 10.1096C7.12302 8.79123 7.39418 7.47251 8.00034 6.29798C8.60651 5.12346 9.52428 4.13845 10.6531 3.45089C11.7819 2.76334 13.0782 2.39977 14.3999 2.40002V2.40002Z" fill="gray"/>
</svg>
